<?xml version="1.0" standalone="no"?>
<!DOCTYPE svg PUBLIC "-//W3C//DTD SVG 20010904//EN"
 "http://www.w3.org/TR/2001/REC-SVG-20010904/DTD/svg10.dtd">
<svg version="1.0" xmlns="http://www.w3.org/2000/svg"
 width="300.000000pt" height="163.000000pt" viewBox="0 0 300.000000 163.000000"
 preserveAspectRatio="xMidYMid meet">
<metadata>
Created by potrace 1.10, written by Peter Selinger 2001-2011
</metadata>
<g transform="translate(0.000000,163.000000) scale(0.100000,-0.100000)"
fill="#000000" stroke="none">
<path d="M1441 1041 l-93 -47 -2 -58 -1 -59 102 -51 103 -50 100 49 c55 27
100 54 100 60 0 6 -13 24 -29 39 l-30 29 -36 -22 c-20 -11 -40 -21 -44 -21 -4
0 -5 27 -3 61 4 55 2 63 -24 90 -15 16 -33 29 -38 28 -6 0 -53 -21 -105 -48z
m128 5 c9 -11 -1 -19 -50 -41 -54 -24 -59 -29 -46 -42 13 -13 18 -13 45 1 27
14 31 14 43 0 10 -13 10 -17 -2 -25 -8 -5 -20 -9 -26 -9 -19 0 -16 -11 13 -41
l27 -28 60 30 c53 27 61 29 75 15 13 -13 6 -19 -71 -57 l-86 -43 -88 86 -88
86 80 40 c90 46 98 48 114 28z m-133 -173 c-10 -11 -56 23 -56 40 0 19 3 18
30 -8 16 -16 28 -30 26 -32z"/>
<path d="M742 698 c-7 -7 -12 -43 -12 -90 l0 -78 53 0 c29 0 58 5 65 12 18 18
15 48 -5 49 -11 0 -13 3 -5 6 6 2 11 14 11 26 -1 17 -2 18 -6 5 -3 -12 -14
-18 -34 -18 -19 0 -29 -5 -29 -15 0 -11 11 -15 36 -15 24 0 34 -4 32 -12 -5
-14 -98 -19 -98 -5 0 4 0 34 0 67 l0 60 50 0 c28 0 50 -4 50 -10 0 -5 -16 -10
-35 -10 -23 0 -35 -5 -35 -14 0 -9 9 -12 28 -8 35 6 52 20 52 43 0 16 -8 19
-53 19 -29 0 -58 -5 -65 -12z"/>
<path d="M892 697 c-18 -22 27 -161 54 -165 12 -2 25 3 31 10 9 10 43 141 43
162 0 11 -38 6 -48 -7 -15 -18 -26 -67 -14 -67 5 0 12 14 16 32 5 23 9 29 17
21 16 -16 -12 -128 -31 -128 -14 0 -30 42 -44 115 -5 26 -4 31 3 20 6 -8 11
-10 11 -5 0 6 5 3 11 -5 8 -12 10 -12 7 5 -4 24 -40 32 -56 12z"/>
<path d="M1062 687 c-18 -19 -22 -35 -22 -91 0 -64 1 -67 23 -64 12 2 26 13
32 26 12 27 31 23 27 -6 -4 -25 25 -31 46 -10 18 18 15 119 -4 146 -21 30 -73
30 -102 -1z m98 -7 c0 -3 -4 -20 -9 -38 -7 -21 -6 -32 1 -32 5 0 7 -8 4 -17
-4 -9 -2 -20 4 -23 8 -5 6 -9 -4 -13 -12 -5 -16 0 -16 18 0 20 -5 25 -25 25
-20 0 -25 -5 -25 -25 0 -14 -6 -25 -14 -25 -15 0 -20 107 -5 126 9 10 89 15
89 4z"/>
<path d="M1090 650 c0 -15 7 -20 25 -20 18 0 25 5 25 20 0 15 -7 20 -25 20
-18 0 -25 -5 -25 -20z"/>
<path d="M1212 698 c-7 -7 -12 -43 -12 -90 0 -68 2 -78 18 -78 10 0 24 6 31
13 11 10 14 10 18 0 6 -16 35 -17 51 -1 19 19 16 157 -3 164 -8 4 -23 0 -32
-7 -13 -11 -17 -11 -20 -1 -6 15 -35 16 -51 0z m65 -45 c10 -16 12 -14 12 16
1 29 3 32 16 21 17 -14 20 -37 5 -42 -7 -2 -6 -14 2 -34 12 -33 6 -64 -13 -64
-6 0 -16 14 -22 30 -6 17 -15 30 -19 30 -4 0 -8 -13 -8 -30 0 -20 -5 -30 -15
-30 -12 0 -15 14 -15 69 0 90 15 99 57 34z"/>
<path d="M1238 633 c6 -2 18 -2 25 0 6 3 1 5 -13 5 -14 0 -19 -2 -12 -5z"/>
<path d="M1372 687 c-17 -18 -22 -36 -22 -78 0 -30 5 -60 12 -67 17 -17 69
-15 96 4 19 13 22 24 21 77 -1 34 -6 68 -11 75 -17 21 -72 14 -96 -11z m65 7
c-3 -3 -12 -4 -19 -1 -8 3 -5 6 6 6 11 1 17 -2 13 -5z m31 -28 c4 -18 -13 -22
-23 -6 -3 6 -15 10 -26 10 -10 0 -19 -4 -19 -10 0 -5 7 -10 17 -10 15 0 15 -1
0 -18 -23 -25 -22 -52 2 -52 25 0 36 16 15 24 -20 8 -8 26 17 26 17 0 20 -6
17 -32 -2 -25 -9 -35 -31 -42 -39 -14 -61 2 -65 49 -6 69 2 82 50 79 30 -1 44
-6 46 -18z"/>
<path d="M1511 696 c-7 -9 -11 -42 -9 -88 l3 -73 59 0 c46 0 61 4 70 18 9 14
7 21 -7 32 -12 8 -14 15 -8 20 6 3 10 14 10 23 -1 16 -2 16 -6 0 -3 -10 -16
-18 -36 -20 -44 -4 -40 -22 6 -26 42 -4 49 -19 13 -28 -29 -7 -77 -2 -76 9 0
4 0 34 0 67 l0 60 50 0 c28 0 50 -4 50 -10 0 -5 -16 -10 -35 -10 -23 0 -35 -5
-35 -14 0 -9 9 -12 28 -8 35 6 52 20 52 43 0 16 -8 19 -59 19 -38 0 -63 -5
-70 -14z"/>
<path d="M1672 698 c-7 -7 -12 -43 -12 -90 l0 -78 59 0 c40 0 63 5 71 15 20
24 4 45 -35 45 l-35 0 0 60 c0 51 -3 60 -18 60 -10 0 -23 -5 -30 -12z m38 -63
l0 -55 40 0 c40 0 53 -13 24 -24 -9 -3 -33 -6 -54 -6 l-37 0 2 68 c3 76 2 72
15 72 6 0 10 -25 10 -55z"/>
<path d="M1832 698 c-7 -7 -12 -42 -12 -90 0 -70 2 -78 19 -78 33 0 42 24 39
101 -2 57 -7 74 -18 77 -9 1 -21 -3 -28 -10z m38 -73 c0 -58 -3 -75 -14 -75
-18 0 -22 18 -18 91 3 43 8 59 18 59 11 0 14 -17 14 -75z"/>
<path d="M1922 688 c-28 -31 -29 -133 -1 -148 28 -16 63 -12 86 9 28 27 30
137 2 152 -30 15 -64 10 -87 -13z m58 1 c0 -6 7 -9 15 -6 17 7 29 -8 19 -24
-4 -8 -9 -8 -17 0 -15 15 -47 14 -47 -2 0 -7 9 -13 21 -14 31 -3 50 -23 47
-52 -6 -48 -87 -55 -96 -7 -2 9 3 16 12 16 9 0 16 -4 16 -9 0 -12 40 -8 43 4
1 6 -10 11 -25 13 -35 4 -52 26 -44 56 5 19 11 23 28 18 14 -3 19 -2 14 6 -4
7 -2 12 3 12 6 0 11 -5 11 -11z"/>
<path d="M2062 698 c-7 -7 -12 -43 -12 -91 0 -76 1 -78 23 -75 12 2 26 13 32
25 5 12 17 24 27 26 14 4 18 -1 18 -24 0 -21 5 -29 18 -29 33 0 42 21 42 102
0 70 -2 78 -19 78 -11 0 -28 -12 -39 -27 l-20 -28 -13 28 c-13 29 -37 35 -57
15z m71 -50 c9 -10 28 -18 42 -18 22 0 25 -4 25 -33 0 -39 -6 -48 -26 -40 -11
4 -13 15 -10 37 3 17 3 25 0 19 -3 -7 -14 -13 -24 -13 -10 0 -22 6 -27 13 -5
8 -10 0 -13 -22 -3 -19 -11 -36 -17 -39 -18 -5 -18 134 0 141 6 3 17 -2 22
-11 6 -8 18 -24 28 -34z m67 13 c0 -21 -2 -23 -10 -11 -6 10 -10 11 -10 3 0
-7 -7 -13 -15 -13 -17 0 -18 5 -6 29 15 27 41 22 41 -8z"/>
<path d="M2090 645 c-10 -13 -9 -15 8 -15 15 0 20 5 16 15 -4 8 -7 15 -9 15
-1 0 -8 -7 -15 -15z"/>
<path d="M2259 691 c-20 -16 -24 -28 -23 -74 0 -65 15 -87 58 -87 51 0 76 34
76 103 0 45 -4 58 -19 67 -30 15 -66 12 -92 -9z m99 -59 c2 -33 -1 -52 -8 -52
-6 0 -8 -4 -5 -10 8 -13 -38 -24 -64 -15 -18 5 -21 14 -21 64 0 32 2 60 5 63
3 3 24 4 48 4 l42 -2 3 -52z"/>
<path d="M2282 653 c-15 -31 1 -68 28 -68 25 0 27 8 21 73 -2 18 -39 15 -49
-5z m28 -33 c0 -16 -4 -30 -10 -30 -5 0 -10 14 -10 30 0 17 5 30 10 30 6 0 10
-13 10 -30z"/>
<path d="M955 590 c3 -5 8 -10 11 -10 2 0 4 5 4 10 0 6 -5 10 -11 10 -5 0 -7
-4 -4 -10z"/>
<path d="M1412 446 c-27 -33 -20 -78 9 -60 8 4 7 9 -2 15 -12 7 -12 9 0 9 11
0 11 3 1 15 -10 13 -9 15 9 15 18 0 20 -3 12 -19 -10 -19 -6 -31 12 -31 5 0 7
7 4 15 -4 8 -2 17 3 20 6 4 10 12 10 18 0 16 -47 18 -58 3z"/>
<path d="M1500 451 c0 -5 5 -11 11 -13 5 -2 7 -11 3 -21 -3 -10 -13 -16 -20
-13 -17 6 -19 -10 -2 -20 6 -4 17 1 25 11 7 11 13 13 13 7 0 -9 23 -12 84 -11
80 1 84 2 84 25 0 25 -19 28 -30 4 -5 -12 -7 -11 -7 4 -1 12 -6 16 -15 13 -10
-4 -13 -1 -9 9 7 18 -4 18 -23 0 -16 -16 -19 -30 -5 -21 5 3 13 0 17 -6 4 -8
3 -9 -4 -5 -7 4 -12 2 -12 -4 0 -6 -4 -8 -10 -5 -5 3 -10 15 -10 26 0 10 -4
19 -10 19 -5 0 -10 -4 -10 -10 0 -5 -7 -7 -16 -3 -13 5 -15 1 -10 -18 6 -21 5
-22 -4 -6 -9 14 -9 22 0 33 10 12 8 14 -14 14 -14 0 -26 -4 -26 -9z"/>
</g>
</svg>
